<mxfile host="app.diagrams.net" modified="2022-03-21T16:33:17.299Z" agent="5.0 (Windows NT 10.0; Win64; x64) AppleWebKit/537.36 (KHTML, like Gecko) Chrome/99.0.4844.74 Safari/537.36" etag="BvWVtJBqcLSILpKIbFp2" version="17.1.3" type="github">
  <diagram id="tDxhUoB9qEVGDgbhk-KO" name="Page-1">
    <mxGraphModel dx="2638" dy="2336" grid="1" gridSize="10" guides="1" tooltips="1" connect="1" arrows="1" fold="1" page="1" pageScale="1" pageWidth="827" pageHeight="1169" math="0" shadow="0">
      <root>
        <mxCell id="0" />
        <mxCell id="1" parent="0" />
        <mxCell id="9AFgeaL6U4xl67OPq4vL-31" value="" style="rounded=0;whiteSpace=wrap;html=1;fillColor=#f5f5f5;fontColor=#333333;strokeColor=#666666;" vertex="1" parent="1">
          <mxGeometry x="-361" y="-810" width="231" height="240" as="geometry" />
        </mxCell>
        <mxCell id="9AFgeaL6U4xl67OPq4vL-12" value="" style="rounded=0;whiteSpace=wrap;html=1;fillColor=#f5f5f5;fontColor=#333333;strokeColor=#666666;" vertex="1" parent="1">
          <mxGeometry x="-650" y="-810" width="225" height="240" as="geometry" />
        </mxCell>
        <mxCell id="RuosHeMIYyfSpo287nHV-2" value="" style="endArrow=classic;html=1;rounded=0;strokeWidth=1;entryX=0.5;entryY=0;entryDx=0;entryDy=0;fontSize=14;" parent="1" target="RuosHeMIYyfSpo287nHV-4" edge="1">
          <mxGeometry width="50" height="50" relative="1" as="geometry">
            <mxPoint x="120" y="40" as="sourcePoint" />
            <mxPoint x="120" y="90" as="targetPoint" />
          </mxGeometry>
        </mxCell>
        <mxCell id="RuosHeMIYyfSpo287nHV-3" value="&lt;font style=&quot;font-size: 14px;&quot;&gt;由上层应用或&lt;br style=&quot;font-size: 14px;&quot;&gt;自身协议栈调用&lt;/font&gt;" style="rounded=0;whiteSpace=wrap;html=1;strokeWidth=1;fontSize=14;" parent="1" vertex="1">
          <mxGeometry x="60" y="-10" width="120" height="60" as="geometry" />
        </mxCell>
        <mxCell id="RuosHeMIYyfSpo287nHV-8" value="" style="edgeStyle=orthogonalEdgeStyle;rounded=0;orthogonalLoop=1;jettySize=auto;html=1;fontSize=14;strokeWidth=1;" parent="1" source="RuosHeMIYyfSpo287nHV-4" target="RuosHeMIYyfSpo287nHV-7" edge="1">
          <mxGeometry relative="1" as="geometry" />
        </mxCell>
        <mxCell id="RuosHeMIYyfSpo287nHV-13" value="" style="edgeStyle=orthogonalEdgeStyle;rounded=0;orthogonalLoop=1;jettySize=auto;html=1;fontSize=14;strokeWidth=1;" parent="1" source="RuosHeMIYyfSpo287nHV-4" target="RuosHeMIYyfSpo287nHV-12" edge="1">
          <mxGeometry relative="1" as="geometry">
            <Array as="points">
              <mxPoint x="260" y="110" />
              <mxPoint x="260" y="250" />
              <mxPoint x="120" y="250" />
            </Array>
          </mxGeometry>
        </mxCell>
        <mxCell id="RuosHeMIYyfSpo287nHV-22" value="否" style="edgeLabel;html=1;align=center;verticalAlign=middle;resizable=0;points=[];fontSize=14;" parent="RuosHeMIYyfSpo287nHV-13" vertex="1" connectable="0">
          <mxGeometry x="-0.3918" y="1" relative="1" as="geometry">
            <mxPoint x="-21" y="-6" as="offset" />
          </mxGeometry>
        </mxCell>
        <mxCell id="RuosHeMIYyfSpo287nHV-4" value="QCN，PFC或NACK？" style="rhombus;whiteSpace=wrap;html=1;fontSize=14;strokeWidth=1;" parent="1" vertex="1">
          <mxGeometry x="35" y="80" width="170" height="60" as="geometry" />
        </mxCell>
        <mxCell id="RuosHeMIYyfSpo287nHV-21" style="edgeStyle=orthogonalEdgeStyle;rounded=0;orthogonalLoop=1;jettySize=auto;html=1;exitX=0;exitY=0.5;exitDx=0;exitDy=0;entryX=0;entryY=0.5;entryDx=0;entryDy=0;fontSize=14;strokeWidth=1;" parent="1" source="RuosHeMIYyfSpo287nHV-7" target="RuosHeMIYyfSpo287nHV-18" edge="1">
          <mxGeometry relative="1" as="geometry">
            <Array as="points">
              <mxPoint x="-20" y="210" />
              <mxPoint x="-20" y="495" />
            </Array>
          </mxGeometry>
        </mxCell>
        <mxCell id="RuosHeMIYyfSpo287nHV-7" value="flowID=0，qIndex=7" style="whiteSpace=wrap;html=1;fontSize=14;strokeWidth=1;" parent="1" vertex="1">
          <mxGeometry x="40" y="190" width="160" height="40" as="geometry" />
        </mxCell>
        <mxCell id="RuosHeMIYyfSpo287nHV-9" value="是" style="text;html=1;align=center;verticalAlign=middle;resizable=0;points=[];autosize=1;strokeColor=none;fillColor=none;fontSize=14;" parent="1" vertex="1">
          <mxGeometry x="115" y="150" width="30" height="20" as="geometry" />
        </mxCell>
        <mxCell id="RuosHeMIYyfSpo287nHV-15" value="" style="edgeStyle=orthogonalEdgeStyle;rounded=0;orthogonalLoop=1;jettySize=auto;html=1;fontSize=14;strokeWidth=1;" parent="1" source="RuosHeMIYyfSpo287nHV-12" target="RuosHeMIYyfSpo287nHV-14" edge="1">
          <mxGeometry relative="1" as="geometry" />
        </mxCell>
        <mxCell id="RuosHeMIYyfSpo287nHV-67" value="" style="edgeStyle=orthogonalEdgeStyle;rounded=0;orthogonalLoop=1;jettySize=auto;html=1;fontSize=14;strokeWidth=1;" parent="1" source="RuosHeMIYyfSpo287nHV-12" target="RuosHeMIYyfSpo287nHV-66" edge="1">
          <mxGeometry relative="1" as="geometry" />
        </mxCell>
        <mxCell id="RuosHeMIYyfSpo287nHV-12" value="RDMA流量？" style="rhombus;whiteSpace=wrap;html=1;fontSize=14;strokeWidth=1;" parent="1" vertex="1">
          <mxGeometry x="35" y="280" width="170" height="60" as="geometry" />
        </mxCell>
        <mxCell id="RuosHeMIYyfSpo287nHV-19" value="" style="edgeStyle=orthogonalEdgeStyle;rounded=0;orthogonalLoop=1;jettySize=auto;html=1;fontSize=14;strokeWidth=1;" parent="1" source="RuosHeMIYyfSpo287nHV-14" target="RuosHeMIYyfSpo287nHV-18" edge="1">
          <mxGeometry relative="1" as="geometry" />
        </mxCell>
        <mxCell id="RuosHeMIYyfSpo287nHV-14" value="查表获得flowID，&lt;br style=&quot;font-size: 14px;&quot;&gt;qIndex由应用指定的优先级获得" style="whiteSpace=wrap;html=1;fontSize=14;strokeWidth=1;" parent="1" vertex="1">
          <mxGeometry x="35" y="370" width="170" height="60" as="geometry" />
        </mxCell>
        <mxCell id="RuosHeMIYyfSpo287nHV-25" value="" style="edgeStyle=orthogonalEdgeStyle;rounded=0;orthogonalLoop=1;jettySize=auto;html=1;fontSize=14;strokeWidth=1;" parent="1" source="RuosHeMIYyfSpo287nHV-18" target="RuosHeMIYyfSpo287nHV-24" edge="1">
          <mxGeometry relative="1" as="geometry" />
        </mxCell>
        <mxCell id="RuosHeMIYyfSpo287nHV-18" value="基于flowID插入到对应队列" style="whiteSpace=wrap;html=1;fontSize=14;strokeWidth=1;" parent="1" vertex="1">
          <mxGeometry x="30" y="470" width="180" height="50" as="geometry" />
        </mxCell>
        <mxCell id="RuosHeMIYyfSpo287nHV-24" value="队列调度，发送数据" style="whiteSpace=wrap;html=1;fontSize=14;strokeWidth=1;" parent="1" vertex="1">
          <mxGeometry x="30" y="560" width="180" height="50" as="geometry" />
        </mxCell>
        <mxCell id="RuosHeMIYyfSpo287nHV-29" value="" style="edgeStyle=orthogonalEdgeStyle;rounded=0;orthogonalLoop=1;jettySize=auto;html=1;fontSize=14;strokeWidth=1;" parent="1" source="RuosHeMIYyfSpo287nHV-26" target="RuosHeMIYyfSpo287nHV-28" edge="1">
          <mxGeometry relative="1" as="geometry" />
        </mxCell>
        <mxCell id="RuosHeMIYyfSpo287nHV-26" value="&lt;span style=&quot;font-size: 14px;&quot;&gt;信道接收到数据来回调接收函数&lt;/span&gt;" style="rounded=0;whiteSpace=wrap;html=1;strokeWidth=1;fontSize=14;" parent="1" vertex="1">
          <mxGeometry x="1070" y="10" width="120" height="60" as="geometry" />
        </mxCell>
        <mxCell id="RuosHeMIYyfSpo287nHV-34" value="" style="edgeStyle=orthogonalEdgeStyle;rounded=0;orthogonalLoop=1;jettySize=auto;html=1;fontSize=14;strokeWidth=1;" parent="1" source="RuosHeMIYyfSpo287nHV-28" target="RuosHeMIYyfSpo287nHV-33" edge="1">
          <mxGeometry relative="1" as="geometry" />
        </mxCell>
        <mxCell id="RuosHeMIYyfSpo287nHV-35" value="正常数据" style="edgeLabel;html=1;align=center;verticalAlign=middle;resizable=0;points=[];fontSize=14;" parent="RuosHeMIYyfSpo287nHV-34" vertex="1" connectable="0">
          <mxGeometry x="0.2883" relative="1" as="geometry">
            <mxPoint x="40" y="47" as="offset" />
          </mxGeometry>
        </mxCell>
        <mxCell id="RuosHeMIYyfSpo287nHV-39" value="ACK" style="edgeStyle=orthogonalEdgeStyle;rounded=0;orthogonalLoop=1;jettySize=auto;html=1;fontSize=14;strokeWidth=1;" parent="1" source="RuosHeMIYyfSpo287nHV-28" target="RuosHeMIYyfSpo287nHV-38" edge="1">
          <mxGeometry x="0.2514" y="30" relative="1" as="geometry">
            <Array as="points">
              <mxPoint x="990" y="200" />
              <mxPoint x="990" y="200" />
            </Array>
            <mxPoint as="offset" />
          </mxGeometry>
        </mxCell>
        <mxCell id="RuosHeMIYyfSpo287nHV-42" value="NACK" style="edgeStyle=orthogonalEdgeStyle;rounded=0;orthogonalLoop=1;jettySize=auto;html=1;fontSize=14;strokeWidth=1;" parent="1" source="RuosHeMIYyfSpo287nHV-28" target="RuosHeMIYyfSpo287nHV-41" edge="1">
          <mxGeometry x="-0.3333" y="30" relative="1" as="geometry">
            <Array as="points">
              <mxPoint x="1130" y="240" />
              <mxPoint x="1130" y="240" />
            </Array>
            <mxPoint as="offset" />
          </mxGeometry>
        </mxCell>
        <mxCell id="RuosHeMIYyfSpo287nHV-46" value="QCN" style="edgeStyle=orthogonalEdgeStyle;rounded=0;orthogonalLoop=1;jettySize=auto;html=1;fontSize=14;strokeWidth=1;exitX=1;exitY=0.5;exitDx=0;exitDy=0;" parent="1" source="RuosHeMIYyfSpo287nHV-28" target="RuosHeMIYyfSpo287nHV-45" edge="1">
          <mxGeometry x="0.2502" y="30" relative="1" as="geometry">
            <mxPoint as="offset" />
          </mxGeometry>
        </mxCell>
        <mxCell id="RuosHeMIYyfSpo287nHV-49" value="" style="edgeStyle=orthogonalEdgeStyle;rounded=0;orthogonalLoop=1;jettySize=auto;html=1;fontSize=14;strokeWidth=1;" parent="1" source="RuosHeMIYyfSpo287nHV-28" target="RuosHeMIYyfSpo287nHV-48" edge="1">
          <mxGeometry relative="1" as="geometry" />
        </mxCell>
        <mxCell id="RuosHeMIYyfSpo287nHV-50" value="PFC" style="edgeLabel;html=1;align=center;verticalAlign=middle;resizable=0;points=[];fontSize=14;" parent="RuosHeMIYyfSpo287nHV-49" vertex="1" connectable="0">
          <mxGeometry x="0.5017" y="4" relative="1" as="geometry">
            <mxPoint x="26" y="15" as="offset" />
          </mxGeometry>
        </mxCell>
        <mxCell id="RuosHeMIYyfSpo287nHV-28" value="&lt;font style=&quot;font-size: 14px;&quot;&gt;判断数据类型&lt;/font&gt;" style="rhombus;whiteSpace=wrap;html=1;rounded=0;strokeWidth=1;fontSize=14;" parent="1" vertex="1">
          <mxGeometry x="1030" y="110" width="200" height="60" as="geometry" />
        </mxCell>
        <mxCell id="RuosHeMIYyfSpo287nHV-33" value="" style="whiteSpace=wrap;html=1;rounded=0;strokeWidth=1;fontSize=14;" parent="1" vertex="1">
          <mxGeometry x="790" y="260" width="120" height="60" as="geometry" />
        </mxCell>
        <mxCell id="RuosHeMIYyfSpo287nHV-38" value="" style="whiteSpace=wrap;html=1;rounded=0;strokeWidth=1;fontSize=14;" parent="1" vertex="1">
          <mxGeometry x="930" y="260" width="120" height="60" as="geometry" />
        </mxCell>
        <mxCell id="RuosHeMIYyfSpo287nHV-41" value="go back n&lt;br&gt;GBN重传" style="whiteSpace=wrap;html=1;rounded=0;strokeWidth=1;fontSize=14;" parent="1" vertex="1">
          <mxGeometry x="1070" y="260" width="120" height="60" as="geometry" />
        </mxCell>
        <mxCell id="RuosHeMIYyfSpo287nHV-45" value="根据CNP头部的数据调整发送速率" style="whiteSpace=wrap;html=1;rounded=0;strokeWidth=1;fontSize=14;" parent="1" vertex="1">
          <mxGeometry x="1210" y="260" width="120" height="70" as="geometry" />
        </mxCell>
        <mxCell id="RuosHeMIYyfSpo287nHV-48" value="暂停对应端口队列数据的发送" style="whiteSpace=wrap;html=1;rounded=0;strokeWidth=1;fontSize=14;" parent="1" vertex="1">
          <mxGeometry x="1350" y="260" width="120" height="70" as="geometry" />
        </mxCell>
        <mxCell id="RuosHeMIYyfSpo287nHV-54" value="" style="edgeStyle=orthogonalEdgeStyle;rounded=0;orthogonalLoop=1;jettySize=auto;html=1;fontSize=14;strokeWidth=1;" parent="1" source="RuosHeMIYyfSpo287nHV-51" target="RuosHeMIYyfSpo287nHV-53" edge="1">
          <mxGeometry relative="1" as="geometry" />
        </mxCell>
        <mxCell id="RuosHeMIYyfSpo287nHV-51" value="查找流表，根据ECN标记决定是否发送CNP" style="whiteSpace=wrap;html=1;rounded=0;strokeWidth=1;fontSize=14;" parent="1" vertex="1">
          <mxGeometry x="790" y="260" width="120" height="60" as="geometry" />
        </mxCell>
        <mxCell id="RuosHeMIYyfSpo287nHV-52" value="发送窗口前移&lt;br&gt;缓冲区队列中小于ACK序列号的数据清除" style="whiteSpace=wrap;html=1;rounded=0;strokeWidth=1;fontSize=14;" parent="1" vertex="1">
          <mxGeometry x="930" y="260" width="120" height="100" as="geometry" />
        </mxCell>
        <mxCell id="RuosHeMIYyfSpo287nHV-59" value="按序" style="edgeStyle=orthogonalEdgeStyle;rounded=0;orthogonalLoop=1;jettySize=auto;html=1;fontSize=14;strokeWidth=1;" parent="1" source="RuosHeMIYyfSpo287nHV-53" target="RuosHeMIYyfSpo287nHV-58" edge="1">
          <mxGeometry x="0.2735" y="32" relative="1" as="geometry">
            <mxPoint x="-2" y="-10" as="offset" />
          </mxGeometry>
        </mxCell>
        <mxCell id="RuosHeMIYyfSpo287nHV-61" value="" style="edgeStyle=orthogonalEdgeStyle;rounded=0;orthogonalLoop=1;jettySize=auto;html=1;fontSize=14;strokeWidth=1;" parent="1" source="RuosHeMIYyfSpo287nHV-53" target="RuosHeMIYyfSpo287nHV-60" edge="1">
          <mxGeometry relative="1" as="geometry" />
        </mxCell>
        <mxCell id="RuosHeMIYyfSpo287nHV-62" value="乱序" style="edgeLabel;html=1;align=center;verticalAlign=middle;resizable=0;points=[];fontSize=14;" parent="RuosHeMIYyfSpo287nHV-61" vertex="1" connectable="0">
          <mxGeometry x="-0.5855" relative="1" as="geometry">
            <mxPoint x="-79" y="-10" as="offset" />
          </mxGeometry>
        </mxCell>
        <mxCell id="RuosHeMIYyfSpo287nHV-53" value="检查接收到数据&lt;br&gt;的序列号" style="rhombus;whiteSpace=wrap;html=1;fontSize=14;rounded=0;strokeWidth=1;" parent="1" vertex="1">
          <mxGeometry x="777.5" y="350" width="145" height="80" as="geometry" />
        </mxCell>
        <mxCell id="RuosHeMIYyfSpo287nHV-58" value="回传ACK" style="whiteSpace=wrap;html=1;fontSize=14;rounded=0;strokeWidth=1;" parent="1" vertex="1">
          <mxGeometry x="950" y="440" width="120" height="60" as="geometry" />
        </mxCell>
        <mxCell id="RuosHeMIYyfSpo287nHV-60" value="回传NACK" style="whiteSpace=wrap;html=1;fontSize=14;rounded=0;strokeWidth=1;" parent="1" vertex="1">
          <mxGeometry x="630" y="440" width="120" height="60" as="geometry" />
        </mxCell>
        <mxCell id="RuosHeMIYyfSpo287nHV-63" value="是" style="text;html=1;align=center;verticalAlign=middle;resizable=0;points=[];autosize=1;strokeColor=none;fillColor=none;fontSize=14;" parent="1" vertex="1">
          <mxGeometry x="115" y="340" width="30" height="20" as="geometry" />
        </mxCell>
        <mxCell id="RuosHeMIYyfSpo287nHV-69" style="edgeStyle=orthogonalEdgeStyle;rounded=0;orthogonalLoop=1;jettySize=auto;html=1;exitX=0.5;exitY=1;exitDx=0;exitDy=0;entryX=1;entryY=0.5;entryDx=0;entryDy=0;fontSize=14;strokeWidth=1;" parent="1" source="RuosHeMIYyfSpo287nHV-66" target="RuosHeMIYyfSpo287nHV-18" edge="1">
          <mxGeometry relative="1" as="geometry" />
        </mxCell>
        <mxCell id="RuosHeMIYyfSpo287nHV-66" value="其他流量&lt;br&gt;flowID=1,qIndex=1" style="whiteSpace=wrap;html=1;fontSize=14;strokeWidth=1;" parent="1" vertex="1">
          <mxGeometry x="260" y="370" width="160" height="60" as="geometry" />
        </mxCell>
        <mxCell id="RuosHeMIYyfSpo287nHV-68" value="否" style="edgeLabel;html=1;align=center;verticalAlign=middle;resizable=0;points=[];fontSize=14;" parent="1" vertex="1" connectable="0">
          <mxGeometry x="249.99999999999955" y="180.00000000000045" as="geometry">
            <mxPoint x="66" y="164" as="offset" />
          </mxGeometry>
        </mxCell>
        <mxCell id="RuosHeMIYyfSpo287nHV-100" style="edgeStyle=orthogonalEdgeStyle;curved=1;rounded=0;orthogonalLoop=1;jettySize=auto;html=1;exitX=1;exitY=0.5;exitDx=0;exitDy=0;entryX=0;entryY=0.5;entryDx=0;entryDy=0;fontSize=25;strokeWidth=2;" parent="1" source="RuosHeMIYyfSpo287nHV-70" target="RuosHeMIYyfSpo287nHV-89" edge="1">
          <mxGeometry relative="1" as="geometry" />
        </mxCell>
        <mxCell id="RuosHeMIYyfSpo287nHV-70" value="&lt;font style=&quot;font-size: 25px&quot;&gt;&lt;br&gt;&lt;br&gt;&lt;br&gt;&lt;br&gt;&lt;br&gt;Parser&lt;/font&gt;" style="rounded=0;whiteSpace=wrap;html=1;fontSize=14;strokeWidth=2;fillColor=#ffe6cc;strokeColor=#d79b00;" parent="1" vertex="1">
          <mxGeometry x="-220" y="790" width="140" height="200" as="geometry" />
        </mxCell>
        <mxCell id="RuosHeMIYyfSpo287nHV-102" style="edgeStyle=orthogonalEdgeStyle;curved=1;rounded=0;orthogonalLoop=1;jettySize=auto;html=1;exitX=1;exitY=0.5;exitDx=0;exitDy=0;entryX=0;entryY=0.5;entryDx=0;entryDy=0;fontSize=25;strokeWidth=2;" parent="1" source="RuosHeMIYyfSpo287nHV-71" target="RuosHeMIYyfSpo287nHV-72" edge="1">
          <mxGeometry relative="1" as="geometry" />
        </mxCell>
        <mxCell id="RuosHeMIYyfSpo287nHV-71" value="&lt;br&gt;&lt;br&gt;&lt;br&gt;&lt;br&gt;&lt;br&gt;Ingress" style="rounded=0;whiteSpace=wrap;html=1;fontSize=25;strokeWidth=2;fillColor=#dae8fc;strokeColor=#6c8ebf;" parent="1" vertex="1">
          <mxGeometry x="180" y="790" width="140" height="200" as="geometry" />
        </mxCell>
        <mxCell id="RuosHeMIYyfSpo287nHV-80" style="edgeStyle=orthogonalEdgeStyle;rounded=0;orthogonalLoop=1;jettySize=auto;html=1;exitX=1;exitY=0.5;exitDx=0;exitDy=0;entryX=0;entryY=0.5;entryDx=0;entryDy=0;fontSize=25;strokeWidth=2;" parent="1" source="RuosHeMIYyfSpo287nHV-72" target="RuosHeMIYyfSpo287nHV-73" edge="1">
          <mxGeometry relative="1" as="geometry" />
        </mxCell>
        <mxCell id="RuosHeMIYyfSpo287nHV-72" value="&lt;br&gt;&lt;br&gt;&lt;br&gt;&lt;br&gt;&lt;br&gt;Schduler" style="rounded=0;whiteSpace=wrap;html=1;fontSize=25;strokeWidth=2;fillColor=#f8cecc;strokeColor=#b85450;" parent="1" vertex="1">
          <mxGeometry x="390" y="790" width="140" height="200" as="geometry" />
        </mxCell>
        <mxCell id="RuosHeMIYyfSpo287nHV-81" style="edgeStyle=orthogonalEdgeStyle;rounded=0;orthogonalLoop=1;jettySize=auto;html=1;exitX=1;exitY=0.5;exitDx=0;exitDy=0;fontSize=25;strokeWidth=2;" parent="1" source="RuosHeMIYyfSpo287nHV-73" edge="1">
          <mxGeometry relative="1" as="geometry">
            <mxPoint x="809.9999999999995" y="890" as="targetPoint" />
          </mxGeometry>
        </mxCell>
        <mxCell id="RuosHeMIYyfSpo287nHV-73" value="&lt;br&gt;&lt;br&gt;&lt;br&gt;&lt;br&gt;&lt;br&gt;Egress" style="rounded=0;whiteSpace=wrap;html=1;fontSize=25;strokeWidth=2;fillColor=#dae8fc;strokeColor=#6c8ebf;" parent="1" vertex="1">
          <mxGeometry x="600" y="790" width="140" height="200" as="geometry" />
        </mxCell>
        <mxCell id="RuosHeMIYyfSpo287nHV-75" value="" style="ellipse;whiteSpace=wrap;html=1;aspect=fixed;fontSize=14;strokeWidth=2;" parent="1" vertex="1">
          <mxGeometry x="-190" y="810" width="40" height="40" as="geometry" />
        </mxCell>
        <mxCell id="RuosHeMIYyfSpo287nHV-76" value="" style="ellipse;whiteSpace=wrap;html=1;aspect=fixed;fontSize=14;strokeWidth=2;" parent="1" vertex="1">
          <mxGeometry x="-140" y="840" width="40" height="40" as="geometry" />
        </mxCell>
        <mxCell id="RuosHeMIYyfSpo287nHV-77" value="" style="ellipse;whiteSpace=wrap;html=1;aspect=fixed;fontSize=14;strokeWidth=2;" parent="1" vertex="1">
          <mxGeometry x="-190" y="880" width="40" height="40" as="geometry" />
        </mxCell>
        <mxCell id="RuosHeMIYyfSpo287nHV-85" value="" style="curved=1;endArrow=classic;html=1;rounded=0;fontSize=14;strokeWidth=2;exitX=0.5;exitY=0;exitDx=0;exitDy=0;" parent="1" source="RuosHeMIYyfSpo287nHV-75" target="RuosHeMIYyfSpo287nHV-76" edge="1">
          <mxGeometry width="50" height="50" relative="1" as="geometry">
            <mxPoint x="-160" y="800" as="sourcePoint" />
            <mxPoint x="-110" y="750" as="targetPoint" />
            <Array as="points">
              <mxPoint x="-140" y="800" />
              <mxPoint x="-110" y="810" />
              <mxPoint x="-110" y="830" />
            </Array>
          </mxGeometry>
        </mxCell>
        <mxCell id="RuosHeMIYyfSpo287nHV-87" style="edgeStyle=orthogonalEdgeStyle;rounded=0;orthogonalLoop=1;jettySize=auto;html=1;exitX=0;exitY=0.5;exitDx=0;exitDy=0;fontSize=14;strokeWidth=2;curved=1;entryX=0.032;entryY=0.353;entryDx=0;entryDy=0;entryPerimeter=0;" parent="1" source="RuosHeMIYyfSpo287nHV-76" target="RuosHeMIYyfSpo287nHV-77" edge="1">
          <mxGeometry relative="1" as="geometry">
            <mxPoint x="-150" y="900" as="targetPoint" />
            <Array as="points">
              <mxPoint x="-189" y="860" />
            </Array>
          </mxGeometry>
        </mxCell>
        <mxCell id="RuosHeMIYyfSpo287nHV-99" value="" style="group" parent="1" vertex="1" connectable="0">
          <mxGeometry x="-25" y="790" width="140" height="200" as="geometry" />
        </mxCell>
        <mxCell id="RuosHeMIYyfSpo287nHV-89" value="&lt;br&gt;&lt;br&gt;&lt;br&gt;&lt;br&gt;&lt;br&gt;Priority Group" style="rounded=0;whiteSpace=wrap;html=1;fontSize=25;strokeWidth=2;fillColor=#d5e8d4;strokeColor=#82b366;" parent="RuosHeMIYyfSpo287nHV-99" vertex="1">
          <mxGeometry width="140" height="200" as="geometry" />
        </mxCell>
        <mxCell id="RuosHeMIYyfSpo287nHV-91" value="" style="outlineConnect=0;dashed=0;verticalLabelPosition=bottom;verticalAlign=top;align=center;html=1;shape=mxgraph.aws3.queue;fillColor=#D9A741;gradientColor=none;fontSize=25;strokeWidth=2;" parent="RuosHeMIYyfSpo287nHV-99" vertex="1">
          <mxGeometry x="20" y="20" width="100" height="30" as="geometry" />
        </mxCell>
        <mxCell id="RuosHeMIYyfSpo287nHV-92" value="" style="outlineConnect=0;dashed=0;verticalLabelPosition=bottom;verticalAlign=top;align=center;html=1;shape=mxgraph.aws3.queue;fillColor=#D9A741;gradientColor=none;fontSize=25;strokeWidth=2;" parent="RuosHeMIYyfSpo287nHV-99" vertex="1">
          <mxGeometry x="20" y="60" width="100" height="30" as="geometry" />
        </mxCell>
        <mxCell id="RuosHeMIYyfSpo287nHV-96" value="" style="outlineConnect=0;dashed=0;verticalLabelPosition=bottom;verticalAlign=top;align=center;html=1;shape=mxgraph.aws3.queue;fillColor=#D9A741;gradientColor=none;fontSize=25;strokeWidth=2;" parent="RuosHeMIYyfSpo287nHV-99" vertex="1">
          <mxGeometry x="20" y="100" width="100" height="30" as="geometry" />
        </mxCell>
        <mxCell id="RuosHeMIYyfSpo287nHV-101" style="edgeStyle=orthogonalEdgeStyle;curved=1;rounded=0;orthogonalLoop=1;jettySize=auto;html=1;exitX=1;exitY=0.5;exitDx=0;exitDy=0;entryX=0;entryY=0.5;entryDx=0;entryDy=0;fontSize=25;strokeWidth=2;" parent="1" source="RuosHeMIYyfSpo287nHV-89" target="RuosHeMIYyfSpo287nHV-71" edge="1">
          <mxGeometry relative="1" as="geometry" />
        </mxCell>
        <mxCell id="RuosHeMIYyfSpo287nHV-103" value="" style="group" parent="1" vertex="1" connectable="0">
          <mxGeometry x="810" y="790" width="140" height="200" as="geometry" />
        </mxCell>
        <mxCell id="RuosHeMIYyfSpo287nHV-104" value="&lt;br&gt;&lt;br&gt;&lt;br&gt;&lt;br&gt;&lt;br&gt;Queue" style="rounded=0;whiteSpace=wrap;html=1;fontSize=25;strokeWidth=2;fillColor=#d5e8d4;strokeColor=#82b366;" parent="RuosHeMIYyfSpo287nHV-103" vertex="1">
          <mxGeometry width="140" height="200" as="geometry" />
        </mxCell>
        <mxCell id="RuosHeMIYyfSpo287nHV-105" value="" style="outlineConnect=0;dashed=0;verticalLabelPosition=bottom;verticalAlign=top;align=center;html=1;shape=mxgraph.aws3.queue;fillColor=#D9A741;gradientColor=none;fontSize=25;strokeWidth=2;" parent="RuosHeMIYyfSpo287nHV-103" vertex="1">
          <mxGeometry x="20" y="20" width="100" height="30" as="geometry" />
        </mxCell>
        <mxCell id="RuosHeMIYyfSpo287nHV-106" value="" style="outlineConnect=0;dashed=0;verticalLabelPosition=bottom;verticalAlign=top;align=center;html=1;shape=mxgraph.aws3.queue;fillColor=#D9A741;gradientColor=none;fontSize=25;strokeWidth=2;" parent="RuosHeMIYyfSpo287nHV-103" vertex="1">
          <mxGeometry x="20" y="60" width="100" height="30" as="geometry" />
        </mxCell>
        <mxCell id="RuosHeMIYyfSpo287nHV-107" value="" style="outlineConnect=0;dashed=0;verticalLabelPosition=bottom;verticalAlign=top;align=center;html=1;shape=mxgraph.aws3.queue;fillColor=#D9A741;gradientColor=none;fontSize=25;strokeWidth=2;" parent="RuosHeMIYyfSpo287nHV-103" vertex="1">
          <mxGeometry x="20" y="100" width="100" height="30" as="geometry" />
        </mxCell>
        <mxCell id="RuosHeMIYyfSpo287nHV-119" value="" style="group" parent="1" vertex="1" connectable="0">
          <mxGeometry x="200" y="802.5" width="107.5" height="150" as="geometry" />
        </mxCell>
        <mxCell id="RuosHeMIYyfSpo287nHV-108" value="" style="rounded=0;whiteSpace=wrap;html=1;fontSize=25;strokeWidth=2;fillColor=#fff2cc;strokeColor=#d6b656;" parent="RuosHeMIYyfSpo287nHV-119" vertex="1">
          <mxGeometry y="7.5" width="70" height="30" as="geometry" />
        </mxCell>
        <mxCell id="RuosHeMIYyfSpo287nHV-110" value="" style="shape=trapezoid;perimeter=trapezoidPerimeter;whiteSpace=wrap;html=1;fixedSize=1;fontSize=25;strokeWidth=2;rotation=90;fillColor=#fff2cc;strokeColor=#d6b656;" parent="RuosHeMIYyfSpo287nHV-119" vertex="1">
          <mxGeometry x="70" y="12.5" width="50" height="25" as="geometry" />
        </mxCell>
        <mxCell id="RuosHeMIYyfSpo287nHV-113" value="" style="rounded=0;whiteSpace=wrap;html=1;fontSize=25;strokeWidth=2;fillColor=#fff2cc;strokeColor=#d6b656;" parent="RuosHeMIYyfSpo287nHV-119" vertex="1">
          <mxGeometry y="57.5" width="70" height="30" as="geometry" />
        </mxCell>
        <mxCell id="RuosHeMIYyfSpo287nHV-114" value="" style="shape=trapezoid;perimeter=trapezoidPerimeter;whiteSpace=wrap;html=1;fixedSize=1;fontSize=25;strokeWidth=2;rotation=90;fillColor=#fff2cc;strokeColor=#d6b656;" parent="RuosHeMIYyfSpo287nHV-119" vertex="1">
          <mxGeometry x="70" y="62.5" width="50" height="25" as="geometry" />
        </mxCell>
        <mxCell id="RuosHeMIYyfSpo287nHV-115" value="" style="rounded=0;whiteSpace=wrap;html=1;fontSize=25;strokeWidth=2;fillColor=#fff2cc;strokeColor=#d6b656;" parent="RuosHeMIYyfSpo287nHV-119" vertex="1">
          <mxGeometry y="107.5" width="70" height="30" as="geometry" />
        </mxCell>
        <mxCell id="RuosHeMIYyfSpo287nHV-116" value="" style="shape=trapezoid;perimeter=trapezoidPerimeter;whiteSpace=wrap;html=1;fixedSize=1;fontSize=25;strokeWidth=2;rotation=90;fillColor=#fff2cc;strokeColor=#d6b656;" parent="RuosHeMIYyfSpo287nHV-119" vertex="1">
          <mxGeometry x="70" y="112.5" width="50" height="25" as="geometry" />
        </mxCell>
        <mxCell id="RuosHeMIYyfSpo287nHV-120" value="" style="group" parent="1" vertex="1" connectable="0">
          <mxGeometry x="616.25" y="802.5" width="107.5" height="150" as="geometry" />
        </mxCell>
        <mxCell id="RuosHeMIYyfSpo287nHV-121" value="" style="rounded=0;whiteSpace=wrap;html=1;fontSize=25;strokeWidth=2;fillColor=#fff2cc;strokeColor=#d6b656;" parent="RuosHeMIYyfSpo287nHV-120" vertex="1">
          <mxGeometry y="7.5" width="70" height="30" as="geometry" />
        </mxCell>
        <mxCell id="RuosHeMIYyfSpo287nHV-122" value="" style="shape=trapezoid;perimeter=trapezoidPerimeter;whiteSpace=wrap;html=1;fixedSize=1;fontSize=25;strokeWidth=2;rotation=90;fillColor=#fff2cc;strokeColor=#d6b656;" parent="RuosHeMIYyfSpo287nHV-120" vertex="1">
          <mxGeometry x="70" y="12.5" width="50" height="25" as="geometry" />
        </mxCell>
        <mxCell id="RuosHeMIYyfSpo287nHV-123" value="" style="rounded=0;whiteSpace=wrap;html=1;fontSize=25;strokeWidth=2;fillColor=#fff2cc;strokeColor=#d6b656;" parent="RuosHeMIYyfSpo287nHV-120" vertex="1">
          <mxGeometry y="57.5" width="70" height="30" as="geometry" />
        </mxCell>
        <mxCell id="RuosHeMIYyfSpo287nHV-124" value="" style="shape=trapezoid;perimeter=trapezoidPerimeter;whiteSpace=wrap;html=1;fixedSize=1;fontSize=25;strokeWidth=2;rotation=90;fillColor=#fff2cc;strokeColor=#d6b656;" parent="RuosHeMIYyfSpo287nHV-120" vertex="1">
          <mxGeometry x="70" y="62.5" width="50" height="25" as="geometry" />
        </mxCell>
        <mxCell id="RuosHeMIYyfSpo287nHV-125" value="" style="rounded=0;whiteSpace=wrap;html=1;fontSize=25;strokeWidth=2;fillColor=#fff2cc;strokeColor=#d6b656;" parent="RuosHeMIYyfSpo287nHV-120" vertex="1">
          <mxGeometry y="107.5" width="70" height="30" as="geometry" />
        </mxCell>
        <mxCell id="RuosHeMIYyfSpo287nHV-126" value="" style="shape=trapezoid;perimeter=trapezoidPerimeter;whiteSpace=wrap;html=1;fixedSize=1;fontSize=25;strokeWidth=2;rotation=90;fillColor=#fff2cc;strokeColor=#d6b656;" parent="RuosHeMIYyfSpo287nHV-120" vertex="1">
          <mxGeometry x="70" y="112.5" width="50" height="25" as="geometry" />
        </mxCell>
        <mxCell id="RuosHeMIYyfSpo287nHV-144" value="" style="group" parent="1" vertex="1" connectable="0">
          <mxGeometry x="950" y="822.81" width="120" height="109.38" as="geometry" />
        </mxCell>
        <mxCell id="RuosHeMIYyfSpo287nHV-139" value="" style="group" parent="RuosHeMIYyfSpo287nHV-144" vertex="1" connectable="0">
          <mxGeometry y="70" width="120" height="39.379999999999995" as="geometry" />
        </mxCell>
        <mxCell id="RuosHeMIYyfSpo287nHV-129" value="" style="endArrow=classic;html=1;rounded=0;fontSize=25;strokeWidth=2;curved=1;strokeColor=#FF3333;" parent="RuosHeMIYyfSpo287nHV-139" edge="1">
          <mxGeometry width="50" height="50" relative="1" as="geometry">
            <mxPoint as="sourcePoint" />
            <mxPoint x="120" as="targetPoint" />
          </mxGeometry>
        </mxCell>
        <mxCell id="RuosHeMIYyfSpo287nHV-131" value="" style="endArrow=classic;html=1;rounded=0;fontSize=25;strokeWidth=2;curved=1;strokeColor=#FF3333;" parent="RuosHeMIYyfSpo287nHV-139" edge="1">
          <mxGeometry width="50" height="50" relative="1" as="geometry">
            <mxPoint y="20" as="sourcePoint" />
            <mxPoint x="120" y="20" as="targetPoint" />
          </mxGeometry>
        </mxCell>
        <mxCell id="RuosHeMIYyfSpo287nHV-132" value="" style="endArrow=classic;html=1;rounded=0;fontSize=25;strokeWidth=2;curved=1;strokeColor=#FF3333;" parent="RuosHeMIYyfSpo287nHV-139" edge="1">
          <mxGeometry width="50" height="50" relative="1" as="geometry">
            <mxPoint y="39.379999999999995" as="sourcePoint" />
            <mxPoint x="120" y="39.379999999999995" as="targetPoint" />
          </mxGeometry>
        </mxCell>
        <mxCell id="RuosHeMIYyfSpo287nHV-140" value="" style="group" parent="RuosHeMIYyfSpo287nHV-144" vertex="1" connectable="0">
          <mxGeometry width="120" height="39.379999999999995" as="geometry" />
        </mxCell>
        <mxCell id="RuosHeMIYyfSpo287nHV-141" value="" style="endArrow=classic;html=1;rounded=0;fontSize=25;strokeWidth=2;curved=1;strokeColor=#FF3333;" parent="RuosHeMIYyfSpo287nHV-140" edge="1">
          <mxGeometry width="50" height="50" relative="1" as="geometry">
            <mxPoint as="sourcePoint" />
            <mxPoint x="120" as="targetPoint" />
          </mxGeometry>
        </mxCell>
        <mxCell id="RuosHeMIYyfSpo287nHV-142" value="" style="endArrow=classic;html=1;rounded=0;fontSize=25;strokeWidth=2;curved=1;strokeColor=#FF3333;" parent="RuosHeMIYyfSpo287nHV-140" edge="1">
          <mxGeometry width="50" height="50" relative="1" as="geometry">
            <mxPoint y="20" as="sourcePoint" />
            <mxPoint x="120" y="20" as="targetPoint" />
          </mxGeometry>
        </mxCell>
        <mxCell id="RuosHeMIYyfSpo287nHV-143" value="" style="endArrow=classic;html=1;rounded=0;fontSize=25;strokeWidth=2;curved=1;strokeColor=#FF3333;" parent="RuosHeMIYyfSpo287nHV-140" edge="1">
          <mxGeometry width="50" height="50" relative="1" as="geometry">
            <mxPoint y="39.379999999999995" as="sourcePoint" />
            <mxPoint x="120" y="39.379999999999995" as="targetPoint" />
          </mxGeometry>
        </mxCell>
        <mxCell id="RuosHeMIYyfSpo287nHV-145" value="" style="group" parent="1" vertex="1" connectable="0">
          <mxGeometry x="-340" y="822.81" width="120" height="109.38" as="geometry" />
        </mxCell>
        <mxCell id="RuosHeMIYyfSpo287nHV-146" value="" style="group" parent="RuosHeMIYyfSpo287nHV-145" vertex="1" connectable="0">
          <mxGeometry y="70" width="120" height="39.379999999999995" as="geometry" />
        </mxCell>
        <mxCell id="RuosHeMIYyfSpo287nHV-147" value="" style="endArrow=classic;html=1;rounded=0;fontSize=25;strokeWidth=2;curved=1;strokeColor=#FF3333;" parent="RuosHeMIYyfSpo287nHV-146" edge="1">
          <mxGeometry width="50" height="50" relative="1" as="geometry">
            <mxPoint as="sourcePoint" />
            <mxPoint x="120" as="targetPoint" />
          </mxGeometry>
        </mxCell>
        <mxCell id="RuosHeMIYyfSpo287nHV-148" value="" style="endArrow=classic;html=1;rounded=0;fontSize=25;strokeWidth=2;curved=1;strokeColor=#FF3333;" parent="RuosHeMIYyfSpo287nHV-146" edge="1">
          <mxGeometry width="50" height="50" relative="1" as="geometry">
            <mxPoint y="20" as="sourcePoint" />
            <mxPoint x="120" y="20" as="targetPoint" />
          </mxGeometry>
        </mxCell>
        <mxCell id="RuosHeMIYyfSpo287nHV-149" value="" style="endArrow=classic;html=1;rounded=0;fontSize=25;strokeWidth=2;curved=1;strokeColor=#FF3333;" parent="RuosHeMIYyfSpo287nHV-146" edge="1">
          <mxGeometry width="50" height="50" relative="1" as="geometry">
            <mxPoint y="39.379999999999995" as="sourcePoint" />
            <mxPoint x="120" y="39.379999999999995" as="targetPoint" />
          </mxGeometry>
        </mxCell>
        <mxCell id="RuosHeMIYyfSpo287nHV-150" value="" style="group" parent="RuosHeMIYyfSpo287nHV-145" vertex="1" connectable="0">
          <mxGeometry width="120" height="39.379999999999995" as="geometry" />
        </mxCell>
        <mxCell id="RuosHeMIYyfSpo287nHV-151" value="" style="endArrow=classic;html=1;rounded=0;fontSize=25;strokeWidth=2;curved=1;strokeColor=#FF3333;" parent="RuosHeMIYyfSpo287nHV-150" edge="1">
          <mxGeometry width="50" height="50" relative="1" as="geometry">
            <mxPoint as="sourcePoint" />
            <mxPoint x="120" as="targetPoint" />
          </mxGeometry>
        </mxCell>
        <mxCell id="RuosHeMIYyfSpo287nHV-152" value="" style="endArrow=classic;html=1;rounded=0;fontSize=25;strokeWidth=2;curved=1;strokeColor=#FF3333;" parent="RuosHeMIYyfSpo287nHV-150" edge="1">
          <mxGeometry width="50" height="50" relative="1" as="geometry">
            <mxPoint y="20" as="sourcePoint" />
            <mxPoint x="120" y="20" as="targetPoint" />
          </mxGeometry>
        </mxCell>
        <mxCell id="RuosHeMIYyfSpo287nHV-153" value="" style="endArrow=classic;html=1;rounded=0;fontSize=25;strokeWidth=2;curved=1;strokeColor=#FF3333;" parent="RuosHeMIYyfSpo287nHV-150" edge="1">
          <mxGeometry width="50" height="50" relative="1" as="geometry">
            <mxPoint y="39.379999999999995" as="sourcePoint" />
            <mxPoint x="120" y="39.379999999999995" as="targetPoint" />
          </mxGeometry>
        </mxCell>
        <mxCell id="RuosHeMIYyfSpo287nHV-164" style="rounded=0;orthogonalLoop=1;jettySize=auto;html=1;exitX=1;exitY=0.5;exitDx=0;exitDy=0;fontSize=30;strokeColor=#FF3333;strokeWidth=2;endArrow=none;endFill=0;" parent="1" source="RuosHeMIYyfSpo287nHV-154" target="RuosHeMIYyfSpo287nHV-160" edge="1">
          <mxGeometry relative="1" as="geometry" />
        </mxCell>
        <mxCell id="RuosHeMIYyfSpo287nHV-154" value="" style="aspect=fixed;perimeter=ellipsePerimeter;html=1;align=center;shadow=0;dashed=0;spacingTop=3;image;image=img/lib/active_directory/generic_server.svg;fontSize=25;strokeWidth=2;" parent="1" vertex="1">
          <mxGeometry x="-150" y="1210" width="28.000000000000004" height="50" as="geometry" />
        </mxCell>
        <mxCell id="RuosHeMIYyfSpo287nHV-165" style="edgeStyle=none;rounded=0;orthogonalLoop=1;jettySize=auto;html=1;exitX=1;exitY=0.5;exitDx=0;exitDy=0;fontSize=30;endArrow=none;endFill=0;strokeColor=#FF3333;strokeWidth=2;" parent="1" source="RuosHeMIYyfSpo287nHV-155" target="RuosHeMIYyfSpo287nHV-160" edge="1">
          <mxGeometry relative="1" as="geometry" />
        </mxCell>
        <mxCell id="RuosHeMIYyfSpo287nHV-155" value="" style="aspect=fixed;perimeter=ellipsePerimeter;html=1;align=center;shadow=0;dashed=0;spacingTop=3;image;image=img/lib/active_directory/generic_server.svg;fontSize=25;strokeWidth=2;" parent="1" vertex="1">
          <mxGeometry x="-150" y="1280" width="28.000000000000004" height="50" as="geometry" />
        </mxCell>
        <mxCell id="RuosHeMIYyfSpo287nHV-166" style="edgeStyle=none;rounded=0;orthogonalLoop=1;jettySize=auto;html=1;exitX=1;exitY=0.5;exitDx=0;exitDy=0;fontSize=30;endArrow=none;endFill=0;strokeColor=#FF3333;strokeWidth=2;" parent="1" source="RuosHeMIYyfSpo287nHV-156" target="RuosHeMIYyfSpo287nHV-160" edge="1">
          <mxGeometry relative="1" as="geometry" />
        </mxCell>
        <mxCell id="RuosHeMIYyfSpo287nHV-156" value="" style="aspect=fixed;perimeter=ellipsePerimeter;html=1;align=center;shadow=0;dashed=0;spacingTop=3;image;image=img/lib/active_directory/generic_server.svg;fontSize=25;strokeWidth=2;" parent="1" vertex="1">
          <mxGeometry x="-150" y="1350" width="28.000000000000004" height="50" as="geometry" />
        </mxCell>
        <mxCell id="RuosHeMIYyfSpo287nHV-167" style="edgeStyle=none;rounded=0;orthogonalLoop=1;jettySize=auto;html=1;exitX=1;exitY=0.5;exitDx=0;exitDy=0;fontSize=30;endArrow=none;endFill=0;strokeColor=#FF3333;strokeWidth=2;" parent="1" source="RuosHeMIYyfSpo287nHV-157" target="RuosHeMIYyfSpo287nHV-160" edge="1">
          <mxGeometry relative="1" as="geometry" />
        </mxCell>
        <mxCell id="RuosHeMIYyfSpo287nHV-157" value="" style="aspect=fixed;perimeter=ellipsePerimeter;html=1;align=center;shadow=0;dashed=0;spacingTop=3;image;image=img/lib/active_directory/generic_server.svg;fontSize=25;strokeWidth=2;" parent="1" vertex="1">
          <mxGeometry x="-150" y="1470" width="28.000000000000004" height="50" as="geometry" />
        </mxCell>
        <mxCell id="RuosHeMIYyfSpo287nHV-158" value="&lt;font style=&quot;font-size: 30px&quot;&gt;...&lt;/font&gt;" style="text;html=1;strokeColor=none;fillColor=none;align=center;verticalAlign=middle;whiteSpace=wrap;rounded=0;fontSize=25;" parent="1" vertex="1">
          <mxGeometry x="-166" y="1410" width="60" height="30" as="geometry" />
        </mxCell>
        <mxCell id="RuosHeMIYyfSpo287nHV-168" style="edgeStyle=none;rounded=0;orthogonalLoop=1;jettySize=auto;html=1;exitX=1;exitY=0.5;exitDx=0;exitDy=0;fontSize=30;endArrow=none;endFill=0;strokeColor=#FF3333;strokeWidth=2;" parent="1" source="RuosHeMIYyfSpo287nHV-160" target="RuosHeMIYyfSpo287nHV-161" edge="1">
          <mxGeometry relative="1" as="geometry" />
        </mxCell>
        <mxCell id="RuosHeMIYyfSpo287nHV-160" value="" style="image;html=1;image=img/lib/clip_art/networking/Switch_128x128.png;fontSize=30;strokeWidth=2;" parent="1" vertex="1">
          <mxGeometry y="1315" width="80" height="80" as="geometry" />
        </mxCell>
        <mxCell id="RuosHeMIYyfSpo287nHV-161" value="" style="aspect=fixed;perimeter=ellipsePerimeter;html=1;align=center;shadow=0;dashed=0;spacingTop=3;image;image=img/lib/active_directory/generic_server.svg;fontSize=25;strokeWidth=2;" parent="1" vertex="1">
          <mxGeometry x="210" y="1330" width="28.000000000000004" height="50" as="geometry" />
        </mxCell>
        <mxCell id="RuosHeMIYyfSpo287nHV-170" value="&lt;span style=&quot;font-size: 20px&quot;&gt;switch&lt;/span&gt;" style="text;html=1;strokeColor=none;fillColor=none;align=center;verticalAlign=middle;whiteSpace=wrap;rounded=0;fontSize=30;" parent="1" vertex="1">
          <mxGeometry x="15" y="1300" width="60" height="30" as="geometry" />
        </mxCell>
        <mxCell id="RuosHeMIYyfSpo287nHV-172" value="" style="shape=curlyBracket;whiteSpace=wrap;html=1;rounded=1;fontSize=20;strokeWidth=2;" parent="1" vertex="1">
          <mxGeometry x="-196" y="1220" width="30" height="280" as="geometry" />
        </mxCell>
        <mxCell id="RuosHeMIYyfSpo287nHV-173" value="8 &lt;br&gt;sender servers" style="text;html=1;strokeColor=none;fillColor=none;align=center;verticalAlign=middle;whiteSpace=wrap;rounded=0;fontSize=20;" parent="1" vertex="1">
          <mxGeometry x="-306" y="1340" width="110" height="30" as="geometry" />
        </mxCell>
        <mxCell id="RuosHeMIYyfSpo287nHV-175" value="1&lt;br&gt;receiver server" style="text;html=1;strokeColor=none;fillColor=none;align=center;verticalAlign=middle;whiteSpace=wrap;rounded=0;fontSize=20;" parent="1" vertex="1">
          <mxGeometry x="270" y="1340" width="110" height="30" as="geometry" />
        </mxCell>
        <mxCell id="9AFgeaL6U4xl67OPq4vL-26" value="" style="edgeStyle=orthogonalEdgeStyle;rounded=0;orthogonalLoop=1;jettySize=auto;html=1;fontColor=#FF3333;startArrow=none;startFill=0;endArrow=classic;endFill=1;" edge="1" parent="1" source="9AFgeaL6U4xl67OPq4vL-1" target="9AFgeaL6U4xl67OPq4vL-25">
          <mxGeometry relative="1" as="geometry" />
        </mxCell>
        <mxCell id="9AFgeaL6U4xl67OPq4vL-1" value="&lt;font color=&quot;#ff3333&quot;&gt;初始化RDMA资源&lt;/font&gt;&lt;br&gt;ibv_get_device_list()&lt;br&gt;ibv_open_device()&lt;br&gt;ibv_alloc_pd()&lt;br&gt;ibv_reg_mr()&lt;br&gt;ibv_create_cq()&lt;br&gt;ibv_create_qp()" style="rounded=0;whiteSpace=wrap;html=1;" vertex="1" parent="1">
          <mxGeometry x="-470" y="-1120" width="150" height="130" as="geometry" />
        </mxCell>
        <mxCell id="9AFgeaL6U4xl67OPq4vL-28" value="" style="edgeStyle=orthogonalEdgeStyle;rounded=0;orthogonalLoop=1;jettySize=auto;html=1;fontColor=#000000;startArrow=none;startFill=0;endArrow=classic;endFill=1;" edge="1" parent="1" source="9AFgeaL6U4xl67OPq4vL-25" target="9AFgeaL6U4xl67OPq4vL-27">
          <mxGeometry relative="1" as="geometry" />
        </mxCell>
        <mxCell id="9AFgeaL6U4xl67OPq4vL-25" value="通过TCP/IP socket交换连接信息或RDMA CM建链&lt;br&gt;将两台主机上QP连接起来" style="rounded=0;whiteSpace=wrap;html=1;" vertex="1" parent="1">
          <mxGeometry x="-470" y="-965" width="150" height="60" as="geometry" />
        </mxCell>
        <mxCell id="9AFgeaL6U4xl67OPq4vL-30" value="" style="edgeStyle=orthogonalEdgeStyle;rounded=0;orthogonalLoop=1;jettySize=auto;html=1;fontColor=#000000;startArrow=none;startFill=0;endArrow=classic;endFill=1;" edge="1" parent="1" source="9AFgeaL6U4xl67OPq4vL-27" target="9AFgeaL6U4xl67OPq4vL-29">
          <mxGeometry relative="1" as="geometry" />
        </mxCell>
        <mxCell id="9AFgeaL6U4xl67OPq4vL-33" style="edgeStyle=orthogonalEdgeStyle;rounded=0;orthogonalLoop=1;jettySize=auto;html=1;entryX=0.5;entryY=0;entryDx=0;entryDy=0;fontColor=#000000;startArrow=none;startFill=0;endArrow=classic;endFill=1;" edge="1" parent="1" source="9AFgeaL6U4xl67OPq4vL-27" target="9AFgeaL6U4xl67OPq4vL-32">
          <mxGeometry relative="1" as="geometry" />
        </mxCell>
        <mxCell id="9AFgeaL6U4xl67OPq4vL-27" value="将QP的状态从RESET依次修改为INIT、RTR、RTS&lt;br&gt;ibv_modify_qp()" style="rounded=0;whiteSpace=wrap;html=1;" vertex="1" parent="1">
          <mxGeometry x="-470" y="-880" width="150" height="60" as="geometry" />
        </mxCell>
        <mxCell id="9AFgeaL6U4xl67OPq4vL-37" style="rounded=0;orthogonalLoop=1;jettySize=auto;html=1;exitX=0.5;exitY=1;exitDx=0;exitDy=0;entryX=0.5;entryY=0;entryDx=0;entryDy=0;fontColor=#000000;startArrow=none;startFill=0;endArrow=classic;endFill=1;" edge="1" parent="1" source="9AFgeaL6U4xl67OPq4vL-29" target="9AFgeaL6U4xl67OPq4vL-36">
          <mxGeometry relative="1" as="geometry" />
        </mxCell>
        <mxCell id="9AFgeaL6U4xl67OPq4vL-29" value="提交发送请求&lt;br&gt;post_send()" style="rounded=0;whiteSpace=wrap;html=1;" vertex="1" parent="1">
          <mxGeometry x="-602.5" y="-775" width="160" height="60" as="geometry" />
        </mxCell>
        <mxCell id="9AFgeaL6U4xl67OPq4vL-38" style="edgeStyle=none;rounded=0;orthogonalLoop=1;jettySize=auto;html=1;exitX=0.5;exitY=1;exitDx=0;exitDy=0;entryX=0.5;entryY=0;entryDx=0;entryDy=0;fontColor=#000000;startArrow=none;startFill=0;endArrow=classic;endFill=1;" edge="1" parent="1" source="9AFgeaL6U4xl67OPq4vL-32" target="9AFgeaL6U4xl67OPq4vL-34">
          <mxGeometry relative="1" as="geometry" />
        </mxCell>
        <mxCell id="9AFgeaL6U4xl67OPq4vL-32" value="准备内存缓冲区用于接收请求&lt;br&gt;post_recv()" style="rounded=0;whiteSpace=wrap;html=1;" vertex="1" parent="1">
          <mxGeometry x="-342.75" y="-775" width="158.5" height="60" as="geometry" />
        </mxCell>
        <mxCell id="9AFgeaL6U4xl67OPq4vL-48" style="edgeStyle=orthogonalEdgeStyle;rounded=0;orthogonalLoop=1;jettySize=auto;html=1;exitX=1;exitY=0.5;exitDx=0;exitDy=0;entryX=1;entryY=0.5;entryDx=0;entryDy=0;shadow=0;fontColor=#000000;startArrow=none;startFill=0;endArrow=classic;endFill=1;strokeColor=#000000;strokeWidth=1;" edge="1" parent="1" source="9AFgeaL6U4xl67OPq4vL-34" target="9AFgeaL6U4xl67OPq4vL-32">
          <mxGeometry relative="1" as="geometry">
            <Array as="points">
              <mxPoint x="-150" y="-614" />
              <mxPoint x="-150" y="-745" />
            </Array>
          </mxGeometry>
        </mxCell>
        <mxCell id="9AFgeaL6U4xl67OPq4vL-54" style="edgeStyle=orthogonalEdgeStyle;rounded=0;orthogonalLoop=1;jettySize=auto;html=1;exitX=0.5;exitY=1;exitDx=0;exitDy=0;shadow=0;fontColor=#FF3333;startArrow=none;startFill=0;endArrow=classic;endFill=1;strokeColor=#000000;strokeWidth=1;" edge="1" parent="1" source="9AFgeaL6U4xl67OPq4vL-34" target="9AFgeaL6U4xl67OPq4vL-51">
          <mxGeometry relative="1" as="geometry" />
        </mxCell>
        <mxCell id="9AFgeaL6U4xl67OPq4vL-34" value="轮询完成队列等待&lt;br&gt;接收事件完成&lt;br&gt;ibv_poll_cq()" style="rounded=0;whiteSpace=wrap;html=1;" vertex="1" parent="1">
          <mxGeometry x="-342.75" y="-644" width="158.5" height="60" as="geometry" />
        </mxCell>
        <mxCell id="9AFgeaL6U4xl67OPq4vL-45" style="edgeStyle=orthogonalEdgeStyle;rounded=0;orthogonalLoop=1;jettySize=auto;html=1;exitX=0;exitY=0.5;exitDx=0;exitDy=0;entryX=0;entryY=0.5;entryDx=0;entryDy=0;shadow=0;fontColor=#000000;startArrow=none;startFill=0;endArrow=classic;endFill=1;strokeWidth=1;" edge="1" parent="1" source="9AFgeaL6U4xl67OPq4vL-36" target="9AFgeaL6U4xl67OPq4vL-29">
          <mxGeometry relative="1" as="geometry">
            <Array as="points">
              <mxPoint x="-630" y="-614" />
              <mxPoint x="-630" y="-745" />
            </Array>
          </mxGeometry>
        </mxCell>
        <mxCell id="9AFgeaL6U4xl67OPq4vL-52" style="edgeStyle=orthogonalEdgeStyle;rounded=0;orthogonalLoop=1;jettySize=auto;html=1;exitX=0.5;exitY=1;exitDx=0;exitDy=0;shadow=0;fontColor=#FF3333;startArrow=none;startFill=0;endArrow=classic;endFill=1;strokeColor=#000000;strokeWidth=1;" edge="1" parent="1" source="9AFgeaL6U4xl67OPq4vL-36" target="9AFgeaL6U4xl67OPq4vL-51">
          <mxGeometry relative="1" as="geometry" />
        </mxCell>
        <mxCell id="9AFgeaL6U4xl67OPq4vL-36" value="轮询完成队列等待&lt;br&gt;发送事件完成&lt;br&gt;ibv_poll_cq()" style="rounded=0;whiteSpace=wrap;html=1;" vertex="1" parent="1">
          <mxGeometry x="-601.75" y="-644" width="158.5" height="60" as="geometry" />
        </mxCell>
        <mxCell id="9AFgeaL6U4xl67OPq4vL-39" style="rounded=0;orthogonalLoop=1;jettySize=auto;html=1;exitX=0.5;exitY=1;exitDx=0;exitDy=0;entryX=0.5;entryY=0;entryDx=0;entryDy=0;fontColor=#000000;startArrow=none;startFill=0;endArrow=classic;endFill=1;" edge="1" parent="1">
          <mxGeometry relative="1" as="geometry">
            <mxPoint x="-522.76" y="-715" as="sourcePoint" />
            <mxPoint x="-522.7599999999999" y="-644" as="targetPoint" />
          </mxGeometry>
        </mxCell>
        <mxCell id="9AFgeaL6U4xl67OPq4vL-40" value="" style="endArrow=classic;html=1;rounded=0;shadow=0;fontColor=#000000;strokeWidth=1;strokeColor=#0000FF;" edge="1" parent="1">
          <mxGeometry width="50" height="50" relative="1" as="geometry">
            <mxPoint x="-520" y="-700" as="sourcePoint" />
            <mxPoint x="-265" y="-690" as="targetPoint" />
          </mxGeometry>
        </mxCell>
        <mxCell id="9AFgeaL6U4xl67OPq4vL-41" value="" style="endArrow=classic;html=1;rounded=0;shadow=0;fontColor=#000000;strokeWidth=1;strokeColor=#0000FF;" edge="1" parent="1">
          <mxGeometry width="50" height="50" relative="1" as="geometry">
            <mxPoint x="-268" y="-682" as="sourcePoint" />
            <mxPoint x="-520" y="-670" as="targetPoint" />
          </mxGeometry>
        </mxCell>
        <mxCell id="9AFgeaL6U4xl67OPq4vL-46" value="Send" style="text;html=1;strokeColor=none;fillColor=none;align=center;verticalAlign=middle;whiteSpace=wrap;rounded=0;fontColor=#000000;" vertex="1" parent="1">
          <mxGeometry x="-425" y="-720" width="60" height="30" as="geometry" />
        </mxCell>
        <mxCell id="9AFgeaL6U4xl67OPq4vL-47" value="ACK" style="text;html=1;strokeColor=none;fillColor=none;align=center;verticalAlign=middle;whiteSpace=wrap;rounded=0;fontColor=#000000;" vertex="1" parent="1">
          <mxGeometry x="-425" y="-674" width="60" height="30" as="geometry" />
        </mxCell>
        <mxCell id="9AFgeaL6U4xl67OPq4vL-49" value="Client" style="text;html=1;strokeColor=none;fillColor=none;align=center;verticalAlign=middle;whiteSpace=wrap;rounded=0;fontColor=#FF3333;" vertex="1" parent="1">
          <mxGeometry x="-650" y="-805" width="60" height="30" as="geometry" />
        </mxCell>
        <mxCell id="9AFgeaL6U4xl67OPq4vL-50" value="Server" style="text;html=1;strokeColor=none;fillColor=none;align=center;verticalAlign=middle;whiteSpace=wrap;rounded=0;fontColor=#FF3333;" vertex="1" parent="1">
          <mxGeometry x="-190" y="-805" width="60" height="30" as="geometry" />
        </mxCell>
        <mxCell id="9AFgeaL6U4xl67OPq4vL-51" value="&lt;font color=&quot;#ff3333&quot;&gt;释放RDMA资源&lt;/font&gt;&lt;br&gt;ibv_destroy_qp()&lt;br&gt;ibv_destroy_cq()&lt;br&gt;ibv_dereg_mr()&lt;br&gt;ibv_dealloc_pd()&lt;br&gt;ibv_close_device()" style="rounded=0;whiteSpace=wrap;html=1;" vertex="1" parent="1">
          <mxGeometry x="-470" y="-530" width="150" height="110" as="geometry" />
        </mxCell>
      </root>
    </mxGraphModel>
  </diagram>
</mxfile>
